<svg width="56" height="56" viewBox="0 0 56 56" fill="none" xmlns="http://www.w3.org/2000/svg">
<g clip-path="url(#clip0_0_359)">
<rect width="56" height="56" rx="28" fill="#FAFAFA"/>
<rect x="0.5" y="0.5" width="55" height="55" rx="27.5" stroke="#87879D" stroke-opacity="0.25"/>
<path d="M24.552 34.16C23.7947 34.16 23.1013 34.0213 22.472 33.744C21.8427 33.4667 21.3093 33.0773 20.872 32.576C20.4347 32.0747 20.0933 31.4667 19.848 30.752C19.6027 30.0373 19.48 29.248 19.48 28.384C19.48 27.52 19.6027 26.736 19.848 26.032C20.0933 25.3173 20.4347 24.7093 20.872 24.208C21.32 23.7067 21.8533 23.3173 22.472 23.04C23.1013 22.7627 23.7947 22.624 24.552 22.624C25.3093 22.624 25.9973 22.7627 26.616 23.04C27.2453 23.3173 27.7787 23.7067 28.216 24.208C28.664 24.7093 29.0107 25.3173 29.256 26.032C29.5013 26.736 29.624 27.52 29.624 28.384C29.624 29.248 29.5013 30.0373 29.256 30.752C29.0107 31.4667 28.6693 32.0747 28.232 32.576C27.7947 33.0773 27.2613 33.4667 26.632 33.744C26.0027 34.0213 25.3093 34.16 24.552 34.16ZM24.552 31.92C25.3413 31.92 25.96 31.6053 26.408 30.976C26.8667 30.3467 27.096 29.4827 27.096 28.384C27.096 27.3067 26.8667 26.4533 26.408 25.824C25.9493 25.184 25.3307 24.864 24.552 24.864C23.7733 24.864 23.1547 25.184 22.696 25.824C22.2373 26.4533 22.008 27.3067 22.008 28.384C22.008 29.4827 22.232 30.3467 22.68 30.976C23.1387 31.6053 23.7627 31.92 24.552 31.92ZM35.3094 22.8V34H32.7174V25.424L30.3974 26.352V24.112L33.6774 22.8H35.3094Z" fill="#87879D"/>
</g>
<defs>
<clipPath id="clip0_0_359">
<rect width="56" height="56" fill="white"/>
</clipPath>
</defs>
</svg>
