<svg width="56" height="56" viewBox="0 0 56 56" fill="none" xmlns="http://www.w3.org/2000/svg">
<g clip-path="url(#clip0_0_372)">
<rect width="56" height="56" rx="28" fill="#FAFAFA"/>
<rect x="0.5" y="0.5" width="55" height="55" rx="27.5" stroke="#87879D" stroke-opacity="0.25"/>
<path d="M22.9661 34.16C22.2087 34.16 21.5154 34.0213 20.8861 33.744C20.2567 33.4667 19.7234 33.0773 19.2861 32.576C18.8487 32.0747 18.5074 31.4667 18.2621 30.752C18.0167 30.0373 17.8941 29.248 17.8941 28.384C17.8941 27.52 18.0167 26.736 18.2621 26.032C18.5074 25.3173 18.8487 24.7093 19.2861 24.208C19.7341 23.7067 20.2674 23.3173 20.8861 23.04C21.5154 22.7627 22.2087 22.624 22.9661 22.624C23.7234 22.624 24.4114 22.7627 25.0301 23.04C25.6594 23.3173 26.1927 23.7067 26.6301 24.208C27.0781 24.7093 27.4247 25.3173 27.6701 26.032C27.9154 26.736 28.0381 27.52 28.0381 28.384C28.0381 29.248 27.9154 30.0373 27.6701 30.752C27.4247 31.4667 27.0834 32.0747 26.6461 32.576C26.2087 33.0773 25.6754 33.4667 25.0461 33.744C24.4167 34.0213 23.7234 34.16 22.9661 34.16ZM22.9661 31.92C23.7554 31.92 24.3741 31.6053 24.8221 30.976C25.2807 30.3467 25.5101 29.4827 25.5101 28.384C25.5101 27.3067 25.2807 26.4533 24.8221 25.824C24.3634 25.184 23.7447 24.864 22.9661 24.864C22.1874 24.864 21.5687 25.184 21.1101 25.824C20.6514 26.4533 20.4221 27.3067 20.4221 28.384C20.4221 29.4827 20.6461 30.3467 21.0941 30.976C21.5527 31.6053 22.1767 31.92 22.9661 31.92ZM37.9954 30.848C37.9954 31.328 37.8781 31.7707 37.6434 32.176C37.4088 32.5813 37.0834 32.9333 36.6674 33.232C36.2621 33.52 35.7714 33.7493 35.1954 33.92C34.6301 34.08 34.0114 34.16 33.3394 34.16C32.4328 34.16 31.5741 34 30.7634 33.68C29.9634 33.36 29.3021 32.9173 28.7794 32.352L30.5234 30.752C30.9501 31.2 31.3661 31.5093 31.7714 31.68C32.1874 31.8507 32.6994 31.936 33.3074 31.936C33.9261 31.936 34.4221 31.8187 34.7954 31.584C35.1794 31.3493 35.3714 31.0347 35.3714 30.64C35.3714 30.3093 35.2061 30.048 34.8754 29.856C34.5554 29.664 34.1074 29.568 33.5314 29.568H32.4754V27.504H33.2594C33.7928 27.504 34.2301 27.376 34.5714 27.12C34.9128 26.8533 35.0834 26.5173 35.0834 26.112C35.0834 25.7493 34.9128 25.456 34.5714 25.232C34.2408 24.9973 33.8141 24.88 33.2914 24.88C32.7581 24.88 32.2941 24.976 31.8994 25.168C31.5154 25.3493 31.0888 25.68 30.6194 26.16L28.8594 24.576C29.4034 23.968 30.0808 23.4933 30.8914 23.152C31.7021 22.8 32.5341 22.624 33.3874 22.624C34.0168 22.624 34.5981 22.704 35.1314 22.864C35.6648 23.0133 36.1181 23.2267 36.4914 23.504C36.8648 23.7813 37.1581 24.1173 37.3714 24.512C37.5848 24.9067 37.6914 25.3387 37.6914 25.808C37.6914 26.352 37.5528 26.8533 37.2754 27.312C36.9981 27.76 36.6141 28.1227 36.1234 28.4C36.6994 28.624 37.1528 28.9493 37.4834 29.376C37.8248 29.8027 37.9954 30.2933 37.9954 30.848Z" fill="#87879D"/>
</g>
<defs>
<clipPath id="clip0_0_372">
<rect width="56" height="56" fill="white"/>
</clipPath>
</defs>
</svg>
